<svg id="Layer_1" enable-background="new 0 0 510 510" height="512" viewBox="0 0 510 510" width="512" xmlns="http://www.w3.org/2000/svg"><g id="XMLID_2283_"><path id="XMLID_2282_" d="m212.293 0c-3.064 18.38-9.476 56.852-11.262 67.57-14.026 4.031-27.548 9.636-40.382 16.75-15.112-10.795-46.863-33.474-55.763-39.831-7.341 7.341-53.036 53.036-60.397 60.397 10.795 15.113 33.474 46.863 39.831 55.763-7.104 12.816-12.713 26.336-16.75 40.382-18.38 3.063-56.852 9.476-67.57 11.262v85.414c18.38 3.064 56.852 9.476 67.57 11.262 4.031 14.025 9.636 27.547 16.75 40.382-10.795 15.112-33.474 46.862-39.831 55.763 7.341 7.341 53.036 53.037 60.397 60.397 15.112-10.795 46.863-33.474 55.763-39.831 12.816 7.105 26.333 12.713 40.382 16.75 3.063 18.381 9.475 56.853 11.262 67.57h42.707l15-255-15-255c-14.939 0-27.769 0-42.707 0z" fill="#a7cafc"/><path id="XMLID_2280_" d="m308.969 442.43c14.026-4.03 27.548-9.636 40.382-16.75 15.112 10.795 46.863 33.474 55.763 39.831l60.397-60.397c-10.795-15.112-33.474-46.862-39.831-55.763 7.104-12.815 12.713-26.335 16.75-40.382 18.381-3.064 56.853-9.476 67.57-11.262 0-10.382 0-75.004 0-85.414-18.381-3.063-56.853-9.476-67.57-11.262-4.031-14.027-9.635-27.547-16.75-40.382 10.795-15.112 33.474-46.863 39.831-55.763-7.341-7.341-53.037-53.037-60.397-60.397-15.112 10.795-46.863 33.474-55.763 39.831-12.815-7.104-26.335-12.713-40.382-16.75-3.064-18.38-9.476-56.852-11.262-67.57-14.939 0-27.769 0-42.707 0v510h42.707c3.063-18.381 9.476-56.853 11.262-67.57z" fill="#8493fb"/><path id="XMLID_2279_" d="m127.5 255c0 70.302 57.194 127.5 127.5 127.5l15-127.5-15-127.5c-70.302 0-127.5 57.194-127.5 127.5z" fill="#e2dff4"/><path id="XMLID_2278_" d="m382.5 255c0-70.302-57.194-127.5-127.5-127.5v255c70.302 0 127.5-57.194 127.5-127.5z" fill="#bebcdd"/><path id="XMLID_2272_" d="m157.5 255c0 25.87 10.194 50.353 28.295 68.609l84.205-68.609-15-97.5c-53.76 0-97.5 43.737-97.5 97.5z" fill="#f9f9f9"/><path id="XMLID_2271_" d="m323.911 186.089c-17.655-17.654-42.03-28.589-68.911-28.589v97.5l69.205 68.609c37.819-38.145 37.738-99.487-.294-137.52z" fill="#e2dff4"/><path id="XMLID_2268_" d="m185.795 323.609c18.273 18.43 42.996 28.891 69.205 28.891 0-9.379 10-37.5 10-37.5s-10-31.2-10-37.5c-30.693 0-57.7 18.651-69.205 46.109z" fill="#ecbd2c"/><path id="XMLID_2239_" d="m255 277.5v75c26.162 0 50.899-10.428 69.205-28.891-11.487-27.415-38.465-46.109-69.205-46.109z" fill="#e58f22"/><path id="XMLID_2186_" d="m202.5 255c0 28.947 23.55 52.5 52.5 52.5l15-52.5-15-52.5c-28.948 0-52.5 23.55-52.5 52.5z" fill="#edbba7"/><path id="XMLID_2155_" d="m307.5 255c0-28.947-23.55-52.5-52.5-52.5v105c28.947 0 52.5-23.551 52.5-52.5z" fill="#e8a38b"/></g></svg>